<?xml version="1.0" encoding="utf-8"?>
<!-- Generator: Adobe Illustrator 16.0.3, SVG Export Plug-In . SVG Version: 6.00 Build 0)  -->
<!DOCTYPE svg PUBLIC "-//W3C//DTD SVG 1.1//EN" "http://www.w3.org/Graphics/SVG/1.1/DTD/svg11.dtd">
<svg version="1.1" id="Calque_3" xmlns="http://www.w3.org/2000/svg" xmlns:xlink="http://www.w3.org/1999/xlink" x="0px" y="0px"
	 width="450px" height="240px" viewBox="0 0 450 240" enable-background="new 0 0 450 240" xml:space="preserve">
<g>
	<path fill="#020202" d="M132.652,0.849L59.825,57.752l-8.15,86.361l60.416,70.668l266.114,24.936l20.119-213.488L132.652,0.849z
		 M77.813,112.135c-4.095-0.388-7.097-4.041-6.711-8.137c0.4-4.098,4.042-7.1,8.137-6.711c4.096,0.383,7.098,4.023,6.71,8.136
		C85.563,109.519,81.925,112.52,77.813,112.135z"/>
	<path fill="#FFFFFF" d="M134.383,5.692L64.198,59.965l-8.124,82.416l58.244,67.6l259.968,24.881l19.179-204.289L134.383,5.692z
		 M90.255,105.825c-0.611,6.49-6.365,11.239-12.843,10.628c-6.488-0.622-11.237-6.38-10.629-12.87
		c0.625-6.475,6.381-11.223,12.871-10.613C86.13,93.591,90.877,99.347,90.255,105.825z"/>
	<polygon fill="#020202" points="184.075,50.334 242.885,55.953 241.196,73.567 214.71,71.037 214.171,76.708 238.333,79.021 
		236.781,95.169 212.759,92.888 212.151,99.292 239.231,101.88 237.625,118.624 178.387,112.948 	"/>
	<path fill="#020202" d="M251.657,97.922l-11.127,16.413c0,0,13.977,7.512,33.365,9.199c19.356,1.716,33.557-3.831,38.11-13.102
		c4.565-9.244-0.9-19.764-9.867-22.679c-8.979-2.906-24.55-6.006-22.931-9.094c1.623-3.071,11.392-2.437,17.326,0.044
		c5.937,2.476,7.557,3.956,7.557,3.956l10.213-14.598c0,0-10.85-7.943-31.153-9.15c-20.312-1.203-35.244,8.969-36.281,18.418
		c-1.05,9.453,5.022,15.029,14.253,18.406c0,0,7.833,2.521,13.739,3.806c5.894,1.302,9.644,5.187,2.601,6.572
		C270.42,107.499,255.932,102.295,251.657,97.922z"/>
	<polygon fill="#020202" points="332.484,85.222 315.171,83.572 317.111,63.189 383.778,69.555 381.844,89.938 364.519,88.278 
		360.479,130.636 328.873,127.62 	"/>
	<path fill="#020202" d="M188.987,121.902l30.594,2.768l-3.253,35.536c0,0-3.017,8.527,7.17,9.506
		c10.199,0.973,9.742-8.191,9.742-8.191l3.347-35.078l30.719,2.937l-3.941,41.345c0,0-3.624,22.571-41.194,18.983
		c-37.555-3.583-37.044-27.328-37.044-27.328L188.987,121.902z"/>
	<polygon fill="#020202" points="302.539,132.754 311.311,150.036 322.631,134.675 358.292,138.067 325.023,171.027 
		322.453,197.955 291.164,194.966 293.685,168.482 267.003,129.5 	"/>
	<path fill="#020202" d="M169.24,150.896c0,0,12.885-2.536,12.554-15.696c-0.333-13.172-26.626-16.438-26.626-16.438l-43.396-4.302
		l-5.922,62.834c0,0,34.637,3.642,44.722,4.458c10.088,0.8,30.416-0.058,32.424-13.053
		C184.986,155.695,169.24,150.896,169.24,150.896z M139.613,132.907c0,0,13.327-1.23,12.594,5.019
		c-0.747,6.24-13.409,3.423-13.409,3.423L139.613,132.907z M136.832,164.951l0.693-10.212c0,0,16.66-0.623,16.119,6.534
		C153.104,168.424,136.832,164.951,136.832,164.951z"/>
	<path fill="#020202" d="M162.902,78.894c0,0,12.885-2.532,12.552-15.694C175.122,50.044,148.83,46.75,148.83,46.75l-43.409-4.29
		l-5.908,62.836c0,0,34.636,3.643,44.709,4.442c10.088,0.832,30.416-0.039,32.423-13.037
		C178.649,83.698,162.902,78.894,162.902,78.894z M133.538,61.073c0,0,13.341-1.219,12.605,5.022
		c-0.747,6.238-13.408,3.417-13.408,3.417L133.538,61.073z M130.771,93.136l0.692-10.228c0,0,16.645-0.608,16.12,6.544
		C147.044,96.594,130.771,93.136,130.771,93.136z"/>
	<path fill="#020202" d="M358.527,144.237c0.264-2.78,2.741-4.829,5.522-4.565c2.78,0.262,4.842,2.751,4.58,5.534
		c-0.262,2.781-2.754,4.83-5.535,4.569C360.312,149.495,358.264,147.019,358.527,144.237z M367.382,145.08
		c0.237-2.363-1.313-4.232-3.416-4.425c-2.118-0.21-3.987,1.344-4.205,3.696c-0.237,2.363,1.311,4.23,3.416,4.438
		C365.294,148.985,367.162,147.449,367.382,145.08z M361.904,141.649l2.115,0.205c1.387,0.128,2.075,0.683,1.965,1.884
		c-0.096,0.982-0.704,1.399-1.646,1.399l1.299,2.641l-1.106-0.094l-1.229-2.617l-0.652-0.054l-0.235,2.461l-1.064-0.098
		L361.904,141.649z M362.732,144.195l0.928,0.102c0.636,0.055,1.188,0.025,1.26-0.75c0.068-0.66-0.527-0.83-1.08-0.883l-0.953-0.101
		L362.732,144.195z"/>
</g>
</svg>
